<svg width="133" height="35" viewBox="0 0 133 35" fill="none" xmlns="http://www.w3.org/2000/svg">
<path d="M28.5883 11.6148L27.3016 9.38125C27.1415 9.1031 26.8775 8.89993 26.5676 8.81642C26.2577 8.73291 25.9274 8.7759 25.6492 8.93594L17.9625 13.3891C17.9148 13.4166 17.8606 13.4311 17.8055 13.4309C17.7505 13.4308 17.6964 13.4161 17.6488 13.3884C17.6012 13.3606 17.5618 13.3208 17.5346 13.2729C17.5073 13.225 17.4933 13.1707 17.4938 13.1156L17.5 4.25C17.5 3.91848 17.3683 3.60054 17.1339 3.36612C16.8995 3.1317 16.5815 3 16.25 3H13.75C13.4185 3 13.1005 3.1317 12.8661 3.36612C12.6317 3.60054 12.5 3.91848 12.5 4.25L12.5055 13.1227C12.506 13.1777 12.4919 13.232 12.4647 13.2799C12.4374 13.3278 12.398 13.3676 12.3504 13.3954C12.3029 13.4232 12.2488 13.4378 12.1937 13.438C12.1386 13.4381 12.0844 13.4236 12.0367 13.3961L4.35 8.94297C4.07183 8.78293 3.74148 8.73994 3.43161 8.82345C3.12174 8.90696 2.85774 9.11013 2.69766 9.38828L1.41172 11.6227C1.33233 11.76 1.28084 11.9117 1.26022 12.069C1.2396 12.2262 1.25025 12.3861 1.29155 12.5392C1.33285 12.6924 1.404 12.8359 1.50091 12.9615C1.59781 13.0871 1.71857 13.1923 1.85625 13.2711L9.55078 17.7305C9.59777 17.758 9.63674 17.7974 9.66382 17.8447C9.69089 17.892 9.70514 17.9455 9.70514 18C9.70514 18.0545 9.69089 18.108 9.66382 18.1553C9.63674 18.2026 9.59777 18.242 9.55078 18.2695L1.85625 22.7289C1.58007 22.8898 1.3785 23.1532 1.29528 23.4618C1.21205 23.7704 1.25389 24.0994 1.41172 24.3773L2.69844 26.6109C2.85852 26.8891 3.12252 27.0923 3.43239 27.1758C3.74226 27.2593 4.07261 27.2163 4.35078 27.0563L12.0375 22.6031C12.0852 22.5756 12.1394 22.5611 12.1945 22.5613C12.2496 22.5614 12.3036 22.5761 12.3512 22.6038C12.3988 22.6316 12.4382 22.6714 12.4654 22.7193C12.4927 22.7672 12.5067 22.8215 12.5063 22.8766L12.5 31.75C12.5 32.0815 12.6317 32.3995 12.8661 32.6339C13.1005 32.8683 13.4185 33 13.75 33H16.25C16.5815 33 16.8995 32.8683 17.1339 32.6339C17.3683 32.3995 17.5 32.0815 17.5 31.75L17.4945 22.8695C17.494 22.8144 17.5081 22.7602 17.5353 22.7123C17.5626 22.6644 17.602 22.6245 17.6496 22.5968C17.6972 22.569 17.7512 22.5543 17.8063 22.5542C17.8614 22.5541 17.9156 22.5685 17.9633 22.5961L25.65 27.0492C25.9282 27.2093 26.2585 27.2522 26.5684 27.1687C26.8783 27.0852 27.1423 26.8821 27.3023 26.6039L28.5891 24.3703C28.6685 24.233 28.7199 24.0813 28.7406 23.924C28.7612 23.7667 28.7505 23.6069 28.7092 23.4537C28.6679 23.3006 28.5968 23.1571 28.4999 23.0315C28.403 22.9059 28.2822 22.8007 28.1445 22.7219L20.45 18.2625C20.403 18.2349 20.364 18.1955 20.337 18.1483C20.3099 18.101 20.2956 18.0475 20.2956 17.993C20.2956 17.9385 20.3099 17.8849 20.337 17.8377C20.364 17.7904 20.403 17.751 20.45 17.7234L28.1445 13.2641C28.4213 13.1034 28.6232 12.8399 28.7064 12.5309C28.7895 12.2219 28.747 11.8926 28.5883 11.6148V11.6148Z" stroke="#2FAAF7" stroke-width="2" stroke-linecap="round" stroke-linejoin="round"/>
<path d="M47.1777 28.4209C47.1777 29.5635 46.888 30.4619 46.3086 31.1162C45.7324 31.7705 44.93 32.0977 43.9014 32.0977C42.8499 32.0977 42.0378 31.777 41.4648 31.1357C40.8952 30.4912 40.6104 29.583 40.6104 28.4111C40.6104 27.249 40.8968 26.349 41.4697 25.7109C42.0426 25.0697 42.8564 24.749 43.9111 24.749C44.9365 24.749 45.7373 25.0745 46.3135 25.7256C46.8896 26.3766 47.1777 27.2751 47.1777 28.4209ZM41.4893 28.4209C41.4893 29.3877 41.6943 30.1217 42.1045 30.623C42.5179 31.1211 43.1169 31.3701 43.9014 31.3701C44.6924 31.3701 45.2897 31.1211 45.6934 30.623C46.097 30.125 46.2988 29.391 46.2988 28.4209C46.2988 27.4606 46.097 26.7331 45.6934 26.2383C45.293 25.7402 44.6989 25.4912 43.9111 25.4912C43.1201 25.4912 42.5179 25.7419 42.1045 26.2432C41.6943 26.7412 41.4893 27.4671 41.4893 28.4209ZM52.3145 32V28.5381C52.3145 28.1019 52.2152 27.7764 52.0166 27.5615C51.818 27.3467 51.5072 27.2393 51.084 27.2393C50.5241 27.2393 50.1139 27.3906 49.8535 27.6934C49.5931 27.9961 49.4629 28.4958 49.4629 29.1924V32H48.6523V26.6484H49.3115L49.4434 27.3809H49.4824C49.6484 27.1172 49.8812 26.9137 50.1807 26.7705C50.4801 26.624 50.8138 26.5508 51.1816 26.5508C51.8262 26.5508 52.3112 26.707 52.6367 27.0195C52.9622 27.3288 53.125 27.8252 53.125 28.5088V32H52.3145ZM55.6055 32H54.7949V24.4023H55.6055V32ZM58.1348 32H57.3242V26.6484H58.1348V32ZM57.2559 25.1982C57.2559 25.0127 57.3014 24.8776 57.3926 24.793C57.4837 24.7051 57.5977 24.6611 57.7344 24.6611C57.8646 24.6611 57.9769 24.7051 58.0713 24.793C58.1657 24.8809 58.2129 25.016 58.2129 25.1982C58.2129 25.3805 58.1657 25.5173 58.0713 25.6084C57.9769 25.6963 57.8646 25.7402 57.7344 25.7402C57.5977 25.7402 57.4837 25.6963 57.3926 25.6084C57.3014 25.5173 57.2559 25.3805 57.2559 25.1982ZM63.5156 32V28.5381C63.5156 28.1019 63.4163 27.7764 63.2178 27.5615C63.0192 27.3467 62.7083 27.2393 62.2852 27.2393C61.7253 27.2393 61.3151 27.3906 61.0547 27.6934C60.7943 27.9961 60.6641 28.4958 60.6641 29.1924V32H59.8535V26.6484H60.5127L60.6445 27.3809H60.6836C60.8496 27.1172 61.0824 26.9137 61.3818 26.7705C61.6813 26.624 62.015 26.5508 62.3828 26.5508C63.0273 26.5508 63.5124 26.707 63.8379 27.0195C64.1634 27.3288 64.3262 27.8252 64.3262 28.5088V32H63.5156ZM68.2568 32.0977C67.4658 32.0977 66.8408 31.8568 66.3818 31.375C65.9261 30.8932 65.6982 30.2243 65.6982 29.3682C65.6982 28.5055 65.9098 27.8203 66.333 27.3125C66.7594 26.8047 67.3307 26.5508 68.0469 26.5508C68.7174 26.5508 69.248 26.7721 69.6387 27.2148C70.0293 27.6543 70.2246 28.2354 70.2246 28.958V29.4707H66.5381C66.5544 30.099 66.7122 30.5758 67.0117 30.9014C67.3145 31.2269 67.7393 31.3896 68.2861 31.3896C68.8623 31.3896 69.432 31.2692 69.9951 31.0283V31.751C69.7087 31.8747 69.4368 31.9626 69.1797 32.0146C68.9258 32.07 68.6182 32.0977 68.2568 32.0977ZM68.0371 27.2295C67.6074 27.2295 67.264 27.3695 67.0068 27.6494C66.7529 27.9294 66.6032 28.3167 66.5576 28.8115H69.3555C69.3555 28.3005 69.2415 27.9098 69.0137 27.6396C68.7858 27.3662 68.4603 27.2295 68.0371 27.2295ZM78.8574 26.9414C78.8574 27.6641 78.61 28.2207 78.1152 28.6113C77.6237 28.9987 76.9189 29.1924 76.001 29.1924H75.1611V32H74.3311V24.8613H76.1816C77.9655 24.8613 78.8574 25.5547 78.8574 26.9414ZM75.1611 28.4795H75.9082C76.6439 28.4795 77.1761 28.3607 77.5049 28.123C77.8337 27.8854 77.998 27.5046 77.998 26.9805C77.998 26.5085 77.8434 26.1569 77.5342 25.9258C77.2249 25.6947 76.7432 25.5791 76.0889 25.5791H75.1611V28.4795ZM83.8965 32V28.5381C83.8965 28.1019 83.7972 27.7764 83.5986 27.5615C83.4001 27.3467 83.0892 27.2393 82.666 27.2393C82.1029 27.2393 81.6911 27.3923 81.4307 27.6982C81.1735 28.0042 81.0449 28.5055 81.0449 29.2021V32H80.2344V24.4023H81.0449V26.7021C81.0449 26.9788 81.0319 27.2083 81.0059 27.3906H81.0547C81.2142 27.1335 81.4404 26.9316 81.7334 26.7852C82.0296 26.6354 82.3665 26.5605 82.7441 26.5605C83.3984 26.5605 83.8883 26.7168 84.2139 27.0293C84.5426 27.3385 84.707 27.8317 84.707 28.5088V32H83.8965ZM89.668 32L89.5068 31.2383H89.4678C89.2008 31.5736 88.9339 31.8014 88.667 31.9219C88.4033 32.0391 88.0729 32.0977 87.6758 32.0977C87.1452 32.0977 86.7285 31.9609 86.4258 31.6875C86.1263 31.4141 85.9766 31.0251 85.9766 30.5205C85.9766 29.4398 86.8408 28.8734 88.5693 28.8213L89.4775 28.792V28.46C89.4775 28.04 89.3864 27.7308 89.2041 27.5322C89.0251 27.3304 88.737 27.2295 88.3398 27.2295C87.8939 27.2295 87.3893 27.3662 86.8262 27.6396L86.5771 27.0195C86.8408 26.8763 87.1289 26.764 87.4414 26.6826C87.7572 26.6012 88.0729 26.5605 88.3887 26.5605C89.0267 26.5605 89.4987 26.7021 89.8047 26.9854C90.1139 27.2686 90.2686 27.7227 90.2686 28.3477V32H89.668ZM87.8369 31.4287C88.3415 31.4287 88.737 31.2904 89.0234 31.0137C89.3132 30.737 89.458 30.3496 89.458 29.8516V29.3682L88.6475 29.4023C88.0029 29.4251 87.5374 29.526 87.251 29.7051C86.9678 29.8809 86.8262 30.1559 86.8262 30.5303C86.8262 30.8232 86.9141 31.0462 87.0898 31.1992C87.2689 31.3522 87.5179 31.4287 87.8369 31.4287ZM94.3848 26.5508C94.6224 26.5508 94.8356 26.5703 95.0244 26.6094L94.9121 27.3613C94.6908 27.3125 94.4954 27.2881 94.3262 27.2881C93.8932 27.2881 93.5221 27.4639 93.2129 27.8154C92.9069 28.167 92.7539 28.6048 92.7539 29.1289V32H91.9434V26.6484H92.6123L92.7051 27.6396H92.7441C92.9427 27.2913 93.182 27.0228 93.4619 26.834C93.7419 26.6452 94.0495 26.5508 94.3848 26.5508ZM102.847 32V28.5186C102.847 28.0921 102.756 27.7731 102.573 27.5615C102.391 27.3467 102.108 27.2393 101.724 27.2393C101.219 27.2393 100.846 27.3841 100.605 27.6738C100.365 27.9635 100.244 28.4095 100.244 29.0117V32H99.4336V28.5186C99.4336 28.0921 99.3424 27.7731 99.1602 27.5615C98.9779 27.3467 98.693 27.2393 98.3057 27.2393C97.7979 27.2393 97.4251 27.3923 97.1875 27.6982C96.9531 28.001 96.8359 28.499 96.8359 29.1924V32H96.0254V26.6484H96.6846L96.8164 27.3809H96.8555C97.0085 27.1204 97.2233 26.917 97.5 26.7705C97.7799 26.624 98.0924 26.5508 98.4375 26.5508C99.2741 26.5508 99.821 26.8535 100.078 27.459H100.117C100.277 27.179 100.508 26.9577 100.811 26.7949C101.113 26.6322 101.458 26.5508 101.846 26.5508C102.451 26.5508 102.904 26.707 103.203 27.0195C103.506 27.3288 103.657 27.8252 103.657 28.5088V32H102.847ZM108.623 32L108.462 31.2383H108.423C108.156 31.5736 107.889 31.8014 107.622 31.9219C107.358 32.0391 107.028 32.0977 106.631 32.0977C106.1 32.0977 105.684 31.9609 105.381 31.6875C105.081 31.4141 104.932 31.0251 104.932 30.5205C104.932 29.4398 105.796 28.8734 107.524 28.8213L108.433 28.792V28.46C108.433 28.04 108.341 27.7308 108.159 27.5322C107.98 27.3304 107.692 27.2295 107.295 27.2295C106.849 27.2295 106.344 27.3662 105.781 27.6396L105.532 27.0195C105.796 26.8763 106.084 26.764 106.396 26.6826C106.712 26.6012 107.028 26.5605 107.344 26.5605C107.982 26.5605 108.454 26.7021 108.76 26.9854C109.069 27.2686 109.224 27.7227 109.224 28.3477V32H108.623ZM106.792 31.4287C107.297 31.4287 107.692 31.2904 107.979 31.0137C108.268 30.737 108.413 30.3496 108.413 29.8516V29.3682L107.603 29.4023C106.958 29.4251 106.493 29.526 106.206 29.7051C105.923 29.8809 105.781 30.1559 105.781 30.5303C105.781 30.8232 105.869 31.0462 106.045 31.1992C106.224 31.3522 106.473 31.4287 106.792 31.4287ZM113.037 32.0977C112.262 32.0977 111.662 31.86 111.235 31.3848C110.812 30.9062 110.601 30.2308 110.601 29.3584C110.601 28.4632 110.815 27.7715 111.245 27.2832C111.678 26.7949 112.293 26.5508 113.091 26.5508C113.348 26.5508 113.605 26.5785 113.862 26.6338C114.119 26.6891 114.321 26.7542 114.468 26.8291L114.219 27.5176C114.04 27.446 113.844 27.3874 113.633 27.3418C113.421 27.293 113.234 27.2686 113.071 27.2686C111.984 27.2686 111.44 27.9619 111.44 29.3486C111.44 30.0062 111.572 30.5107 111.836 30.8623C112.103 31.2139 112.497 31.3896 113.018 31.3896C113.464 31.3896 113.921 31.2936 114.39 31.1016V31.8193C114.032 32.0049 113.581 32.0977 113.037 32.0977ZM114.814 26.6484H115.684L116.855 29.7002C117.113 30.3968 117.272 30.8997 117.334 31.209H117.373C117.415 31.043 117.503 30.7598 117.637 30.3594C117.773 29.9557 118.216 28.7188 118.965 26.6484H119.834L117.534 32.7422C117.306 33.3444 117.039 33.7708 116.733 34.0215C116.431 34.2754 116.058 34.4023 115.615 34.4023C115.368 34.4023 115.124 34.3747 114.883 34.3193V33.6699C115.062 33.709 115.262 33.7285 115.483 33.7285C116.04 33.7285 116.437 33.416 116.675 32.791L116.973 32.0293L114.814 26.6484Z" fill="#6F7686"/>
<path d="M47.99 10.502C48.818 10.682 49.454 11.042 49.898 11.582C50.354 12.11 50.582 12.794 50.582 13.634C50.582 14.714 50.18 15.548 49.376 16.136C48.584 16.712 47.408 17 45.848 17H40.052V4.4H45.488C46.892 4.4 47.978 4.682 48.746 5.246C49.526 5.81 49.916 6.608 49.916 7.64C49.916 8.336 49.742 8.93 49.394 9.422C49.058 9.902 48.59 10.262 47.99 10.502ZM41.384 5.498V10.07H45.398C46.418 10.07 47.204 9.878 47.756 9.494C48.308 9.098 48.584 8.528 48.584 7.784C48.584 7.04 48.308 6.476 47.756 6.092C47.204 5.696 46.418 5.498 45.398 5.498H41.384ZM45.83 15.902C46.958 15.902 47.81 15.71 48.386 15.326C48.962 14.942 49.25 14.342 49.25 13.526C49.25 11.954 48.11 11.168 45.83 11.168H41.384V15.902H45.83ZM61.5963 12.662H53.6763C53.7483 13.646 54.1263 14.444 54.8103 15.056C55.4943 15.656 56.3583 15.956 57.4023 15.956C57.9903 15.956 58.5303 15.854 59.0223 15.65C59.5143 15.434 59.9403 15.122 60.3003 14.714L61.0203 15.542C60.6003 16.046 60.0723 16.43 59.4363 16.694C58.8123 16.958 58.1223 17.09 57.3663 17.09C56.3943 17.09 55.5303 16.886 54.7743 16.478C54.0303 16.058 53.4483 15.482 53.0283 14.75C52.6083 14.018 52.3983 13.19 52.3983 12.266C52.3983 11.342 52.5963 10.514 52.9923 9.782C53.4003 9.05 53.9523 8.48 54.6483 8.072C55.3563 7.664 56.1483 7.46 57.0243 7.46C57.9003 7.46 58.6863 7.664 59.3823 8.072C60.0783 8.48 60.6243 9.05 61.0203 9.782C61.4163 10.502 61.6143 11.33 61.6143 12.266L61.5963 12.662ZM57.0243 8.558C56.1123 8.558 55.3443 8.852 54.7203 9.44C54.1083 10.016 53.7603 10.772 53.6763 11.708H60.3903C60.3063 10.772 59.9523 10.016 59.3283 9.44C58.7163 8.852 57.9483 8.558 57.0243 8.558ZM75.0156 4.4V17H73.7016V11.186H65.8176V17H64.4856V4.4H65.8176V10.016H73.7016V4.4H75.0156ZM87.1022 12.662H79.1822C79.2542 13.646 79.6322 14.444 80.3162 15.056C81.0002 15.656 81.8642 15.956 82.9082 15.956C83.4962 15.956 84.0362 15.854 84.5282 15.65C85.0202 15.434 85.4462 15.122 85.8062 14.714L86.5262 15.542C86.1062 16.046 85.5782 16.43 84.9422 16.694C84.3182 16.958 83.6282 17.09 82.8722 17.09C81.9002 17.09 81.0362 16.886 80.2802 16.478C79.5362 16.058 78.9542 15.482 78.5342 14.75C78.1142 14.018 77.9042 13.19 77.9042 12.266C77.9042 11.342 78.1022 10.514 78.4982 9.782C78.9062 9.05 79.4582 8.48 80.1542 8.072C80.8622 7.664 81.6542 7.46 82.5302 7.46C83.4062 7.46 84.1922 7.664 84.8882 8.072C85.5842 8.48 86.1302 9.05 86.5262 9.782C86.9222 10.502 87.1202 11.33 87.1202 12.266L87.1022 12.662ZM82.5302 8.558C81.6182 8.558 80.8502 8.852 80.2262 9.44C79.6142 10.016 79.2662 10.772 79.1822 11.708H85.8962C85.8122 10.772 85.4582 10.016 84.8342 9.44C84.2222 8.852 83.4542 8.558 82.5302 8.558ZM92.7698 7.46C94.0058 7.46 94.9538 7.772 95.6138 8.396C96.2738 9.008 96.6038 9.92 96.6038 11.132V17H95.3798V15.524C95.0918 16.016 94.6658 16.4 94.1018 16.676C93.5498 16.952 92.8898 17.09 92.1218 17.09C91.0658 17.09 90.2258 16.838 89.6018 16.334C88.9778 15.83 88.6658 15.164 88.6658 14.336C88.6658 13.532 88.9538 12.884 89.5298 12.392C90.1178 11.9 91.0478 11.654 92.3198 11.654H95.3258V11.078C95.3258 10.262 95.0978 9.644 94.6418 9.224C94.1858 8.792 93.5198 8.576 92.6438 8.576C92.0438 8.576 91.4678 8.678 90.9158 8.882C90.3638 9.074 89.8898 9.344 89.4938 9.692L88.9178 8.738C89.3978 8.33 89.9738 8.018 90.6458 7.802C91.3178 7.574 92.0258 7.46 92.7698 7.46ZM92.3198 16.082C93.0398 16.082 93.6578 15.92 94.1738 15.596C94.6898 15.26 95.0738 14.78 95.3258 14.156V12.608H92.3558C90.7358 12.608 89.9258 13.172 89.9258 14.3C89.9258 14.852 90.1358 15.29 90.5558 15.614C90.9758 15.926 91.5638 16.082 92.3198 16.082ZM100.075 3.644H101.353V17H100.075V3.644ZM109.93 16.424C109.69 16.64 109.39 16.808 109.03 16.928C108.682 17.036 108.316 17.09 107.932 17.09C107.044 17.09 106.36 16.85 105.88 16.37C105.4 15.89 105.16 15.212 105.16 14.336V8.612H103.468V7.532H105.16V5.462H106.438V7.532H109.318V8.612H106.438V14.264C106.438 14.828 106.576 15.26 106.852 15.56C107.14 15.848 107.548 15.992 108.076 15.992C108.34 15.992 108.592 15.95 108.832 15.866C109.084 15.782 109.3 15.662 109.48 15.506L109.93 16.424ZM117.081 7.46C118.269 7.46 119.211 7.808 119.907 8.504C120.615 9.188 120.969 10.19 120.969 11.51V17H119.691V11.636C119.691 10.652 119.445 9.902 118.953 9.386C118.461 8.87 117.759 8.612 116.847 8.612C115.827 8.612 115.017 8.918 114.417 9.53C113.829 10.13 113.535 10.964 113.535 12.032V17H112.257V3.644H113.535V9.188C113.883 8.636 114.363 8.21 114.975 7.91C115.587 7.61 116.289 7.46 117.081 7.46ZM132.218 7.532L127.484 18.134C127.1 19.022 126.656 19.652 126.152 20.024C125.648 20.396 125.042 20.582 124.334 20.582C123.878 20.582 123.452 20.51 123.056 20.366C122.66 20.222 122.318 20.006 122.03 19.718L122.624 18.764C123.104 19.244 123.68 19.484 124.352 19.484C124.784 19.484 125.15 19.364 125.45 19.124C125.762 18.884 126.05 18.476 126.314 17.9L126.728 16.982L122.498 7.532H123.83L127.394 15.578L130.958 7.532H132.218Z" fill="#444444"/>
</svg>
